<?xml version="1.0" encoding="us-ascii" standalone="no"?><svg xmlns="http://www.w3.org/2000/svg" xmlns:xlink="http://www.w3.org/1999/xlink" contentStyleType="text/css" height="477.0833px" preserveAspectRatio="none" style="width:321px;height:477px;" version="1.1" viewBox="0 0 321 477" width="321.875px" zoomAndPan="magnify"><defs><linearGradient id="g1fji7a9azwauz0" x1="50%" x2="50%" y1="0%" y2="100%"><stop offset="0%" stop-color="#4DABF5"/><stop offset="100%" stop-color="#2196F3"/></linearGradient><filter height="300%" id="f1fji7a9azwauz" width="300%" x="-1" y="-1"><feGaussianBlur result="blurOut" stdDeviation="2.0833333333333335"/><feColorMatrix in="blurOut" result="blurOut2" type="matrix" values="0 0 0 0 0 0 0 0 0 0 0 0 0 0 0 0 0 0 .4 0"/><feOffset dx="4.166666666666667" dy="4.166666666666667" in="blurOut2" result="blurOut3"/><feBlend in="SourceGraphic" in2="blurOut3" mode="normal"/></filter></defs><g><!--entity Me--><g id="elem_Me"><ellipse cx="30.2083" cy="195.3125" fill="url(#g1fji7a9azwauz0)" filter="url(#f1fji7a9azwauz)" rx="8.3333" ry="8.3333" style="stroke:#2196F3;stroke-width:1.0416666666666667;"/><path d="M30.2083,203.6458 L30.2083,231.7708 M16.6667,211.9792 L43.75,211.9792 M30.2083,231.7708 L16.6667,247.3958 M30.2083,231.7708 L43.75,247.3958 " fill="none" filter="url(#f1fji7a9azwauz)" style="stroke:#2196F3;stroke-width:1.0416666666666667;"/><text fill="#222222" font-family="Verdana" font-size="12.5" lengthAdjust="spacing" textLength="18.75" x="20.8333" y="276.3834">Me</text></g><g id="elem_CRUD ROUTINE"><ellipse cx="208.18" cy="46.5616" fill="url(#g1fji7a9azwauz0)" filter="url(#f1fji7a9azwauz)" rx="91.5133" ry="29.895" style="stroke:#2196F3;stroke-width:2.0833333333333335;"/><text fill="#FFFFFF" font-family="Verdana" font-size="12.5" lengthAdjust="spacing" textLength="91.6667" x="162.3467" y="49.3283">CRUD ROUTINE</text></g><g id="elem_Aply ROUTINE"><ellipse cx="208.3217" cy="142.395" fill="url(#g1fji7a9azwauz0)" filter="url(#f1fji7a9azwauz)" rx="84.8842" ry="29.895" style="stroke:#2196F3;stroke-width:2.0833333333333335;"/><text fill="#FFFFFF" font-family="Verdana" font-size="12.5" lengthAdjust="spacing" textLength="82.2917" x="167.1759" y="145.1617">Aply ROUTINE</text></g><g id="elem_Review ROUTINE"><ellipse cx="208.4328" cy="238.2283" fill="url(#g1fji7a9azwauz0)" filter="url(#f1fji7a9azwauz)" rx="95.9328" ry="29.895" style="stroke:#2196F3;stroke-width:2.0833333333333335;"/><text fill="#FFFFFF" font-family="Verdana" font-size="12.5" lengthAdjust="spacing" textLength="97.9167" x="159.4744" y="240.995">Review ROUTINE</text></g><g id="elem_CRUD Task"><ellipse cx="208.3" cy="334.0616" fill="url(#g1fji7a9azwauz0)" filter="url(#f1fji7a9azwauz)" rx="72.3625" ry="29.895" style="stroke:#2196F3;stroke-width:2.0833333333333335;"/><text fill="#FFFFFF" font-family="Verdana" font-size="12.5" lengthAdjust="spacing" textLength="64.5833" x="176.0084" y="336.8283">CRUD Task</text></g><g id="elem_CRUD Goal"><ellipse cx="208.3" cy="429.895" fill="url(#g1fji7a9azwauz0)" filter="url(#f1fji7a9azwauz)" rx="72.3625" ry="29.895" style="stroke:#2196F3;stroke-width:2.0833333333333335;"/><text fill="#FFFFFF" font-family="Verdana" font-size="12.5" lengthAdjust="spacing" textLength="64.5833" x="176.0084" y="432.6617">CRUD Goal</text></g><!--link Me to CRUD ROUTINE--><g id="link_Me_CRUD ROUTINE"><path d="M50.3958,188.5833 C64.0729,158.3646 84.9167,120.5937 112.5,94.2708 C122.9063,84.3438 135.7708,76.0104 148.625,69.2292 " fill="none" id="Me-CRUD ROUTINE" style="stroke:#2196F3;stroke-width:3.125;"/></g><!--link Me to Aply ROUTINE--><g id="link_Me_Aply ROUTINE"><path d="M50.4167,226.2396 C66.7604,216.3125 90.9479,201.8854 112.5,190.1042 C127.0625,182.1458 143.1042,173.8542 157.7813,166.4583 " fill="none" id="Me-Aply ROUTINE" style="stroke:#2196F3;stroke-width:3.125;"/></g><!--link Me to Review ROUTINE--><g id="link_Me_Review ROUTINE"><path d="M50.4271,238.0208 C65.8438,238.0208 88.75,238.0208 112.3229,238.0208 " fill="none" id="Me-Review ROUTINE" style="stroke:#2196F3;stroke-width:3.125;"/></g><!--link Me to CRUD Task--><g id="link_Me_CRUD Task"><path d="M50.4167,249.8021 C66.7604,259.7292 90.9479,274.1563 112.5,285.9375 C128.0313,294.4271 145.2396,303.2917 160.6979,311.0521 " fill="none" id="Me-CRUD Task" style="stroke:#2196F3;stroke-width:3.125;"/></g><!--link Me to CRUD Goal--><g id="link_Me_CRUD Goal"><path d="M50.3958,287.4583 C64.0729,317.6771 84.9167,355.4479 112.5,381.7708 C124.375,393.1042 139.4479,402.3438 154.0625,409.5833 " fill="none" id="Me-CRUD Goal" style="stroke:#2196F3;stroke-width:3.125;"/></g><!--SRC=[Kop9ICrDLSXDB4ajoapaoabDAr4eoLSeoapFA558oInAJIx9pC_ZyarLqDLLq70E2dLH2F8F3V7qSzM42JeMv5HY20QbbcMcbiE55L1C24aipjP44N7FJym1AW80]--></g></svg>